<svg xmlns="http://www.w3.org/2000/svg" version="1.1" xmlns:xlink="http://www.w3.org/1999/xlink" width="200" height="200"><svg xmlns="http://www.w3.org/2000/svg" version="1.1" xmlns:xlink="http://www.w3.org/1999/xlink" width="200" height="200"><svg xmlns="http://www.w3.org/2000/svg" version="1.1" xmlns:xlink="http://www.w3.org/1999/xlink" viewBox="0 0 200 200"><rect width="200" height="200" fill="url('#gradient')"></rect><defs><linearGradient id="gradient" gradientTransform="rotate(90 0.5 0.5)"><stop offset="0%" stop-color="#472027"></stop><stop offset="100%" stop-color="#192025"></stop></linearGradient></defs><g><g fill="#f3bd7d" transform="matrix(2.2871323985606153,0,0,2.2871323985606153,7.542868622376794,112.147172348954)" stroke="#c06a3e" stroke-width="1.65"><path d="M1.07-14.22L5.58-14.22L8.75-4.33L11.91-14.22L16.43-14.22L16.43 0L12.99 0L12.99-3.32L13.32-10.12L9.88 0L7.62 0L4.17-10.13L4.50-3.32L4.50 0L1.07 0L1.07-14.22ZM21.01-10.57L22.68-4.61L24.43-10.57L27.96-10.57L23.65 1.77L23.47 2.22Q22.55 4.27 20.22 4.27L20.22 4.27Q19.58 4.27 18.87 4.07L18.87 4.07L18.87 1.72L19.30 1.72Q19.99 1.72 20.36 1.52Q20.72 1.32 20.90 0.80L20.90 0.80L21.16 0.10L17.49-10.57L21.01-10.57ZM38.62-5.36L38.62-5.21Q38.62-2.74 37.51-1.27Q36.41 0.20 34.52 0.20L34.52 0.20Q33.07 0.20 32.13-0.87L32.13-0.87L32.13 4.06L28.84 4.06L28.84-10.57L31.91-10.57L32.01-9.59Q32.96-10.76 34.50-10.76L34.50-10.76Q36.46-10.76 37.54-9.32Q38.62-7.88 38.62-5.36L38.62-5.36ZM35.33-5.06L35.33-5.41Q35.33-8.22 33.69-8.22L33.69-8.22Q32.52-8.22 32.13-7.38L32.13-7.38L32.13-3.22Q32.56-2.34 33.71-2.34L33.71-2.34Q35.28-2.34 35.33-5.06L35.33-5.06ZM46.46 0L46.37-1.14Q45.32 0.20 43.54 0.20L43.54 0.20Q41.81 0.20 40.91-0.82Q40.02-1.83 40.02-3.72L40.02-3.72L40.02-10.57L43.31-10.57L43.31-3.70Q43.31-2.34 44.63-2.34L44.63-2.34Q45.76-2.34 46.24-3.15L46.24-3.15L46.24-10.57L49.55-10.57L49.55 0L46.46 0ZM57.80-10.64L57.74-7.59L56.66-7.67Q55.11-7.67 54.67-6.69L54.67-6.69L54.67 0L51.38 0L51.38-10.57L54.46-10.57L54.57-9.21Q55.40-10.76 56.88-10.76L56.88-10.76Q57.41-10.76 57.80-10.64L57.80-10.64ZM62.40-10.57L62.40 0L59.10 0L59.10-10.57L62.40-10.57ZM58.91-13.29L58.91-13.29Q58.91-13.99 59.41-14.44Q59.92-14.89 60.73-14.89Q61.54-14.89 62.05-14.44Q62.56-13.99 62.56-13.29Q62.56-12.59 62.05-12.14Q61.54-11.69 60.73-11.69Q59.92-11.69 59.41-12.14Q58.91-12.59 58.91-13.29ZM64.45-10.57L67.54-10.57L67.65-9.33Q68.77-10.76 70.66-10.76L70.66-10.76Q72.67-10.76 73.37-9.17L73.37-9.17Q74.44-10.76 76.47-10.76L76.47-10.76Q79.69-10.76 79.78-6.88L79.78-6.88L79.78 0L76.47 0L76.47-6.67Q76.47-7.48 76.20-7.85Q75.93-8.22 75.21-8.22L75.21-8.22Q74.23-8.22 73.75-7.35L73.75-7.35L73.76-7.22L73.76 0L70.46 0L70.46-6.65Q70.46-7.48 70.20-7.85Q69.93-8.22 69.19-8.22L69.19-8.22Q68.24-8.22 67.74-7.35L67.74-7.35L67.74 0L64.45 0L64.45-10.57Z"></path></g></g></svg></svg><style>@media (prefers-color-scheme: light) { :root { filter: none; } }
@media (prefers-color-scheme: dark) { :root { filter: none; } }
</style></svg>